<mxfile host="Electron" modified="2025-05-28T12:21:31.995Z" agent="Mozilla/5.0 (X11; Linux x86_64) AppleWebKit/537.36 (KHTML, like Gecko) draw.io/22.1.18 Chrome/120.0.6099.199 Electron/28.1.2 Safari/537.36" etag="PUyLlKVxDXH-YhXUwFeD" version="22.1.18" type="device" pages="2">
  <diagram name="Page-1" id="5wJyQqMARzXPJ0OGq6rA">
    <mxGraphModel dx="1346" dy="829" grid="1" gridSize="10" guides="1" tooltips="1" connect="1" arrows="1" fold="1" page="1" pageScale="1" pageWidth="1169" pageHeight="827" math="0" shadow="0">
      <root>
        <mxCell id="0" />
        <mxCell id="1" parent="0" />
        <mxCell id="S_5JY2q0xqoSdLy2uGYO-18" value="" style="rounded=1;whiteSpace=wrap;html=1;fillColor=none;strokeColor=#FF8000;strokeWidth=3;dashed=1;" parent="1" vertex="1">
          <mxGeometry x="620" y="480" width="510" height="80" as="geometry" />
        </mxCell>
        <mxCell id="tFNJvjeKWlLuB1cjg8E8-17" value="" style="rounded=1;whiteSpace=wrap;html=1;fillColor=none;strokeColor=#b85450;dashed=1;strokeWidth=3;" parent="1" vertex="1">
          <mxGeometry x="210" y="230" width="390" height="150" as="geometry" />
        </mxCell>
        <mxCell id="S_5JY2q0xqoSdLy2uGYO-3" value="" style="rounded=1;whiteSpace=wrap;html=1;fillColor=none;strokeColor=#6c8ebf;dashed=1;strokeWidth=3;" parent="1" vertex="1">
          <mxGeometry x="210" y="410" width="390" height="150" as="geometry" />
        </mxCell>
        <mxCell id="tFNJvjeKWlLuB1cjg8E8-19" value="" style="rounded=1;whiteSpace=wrap;html=1;fillColor=none;strokeColor=#82b366;dashed=1;strokeWidth=3;" parent="1" vertex="1">
          <mxGeometry x="620" y="227.5" width="510" height="235" as="geometry" />
        </mxCell>
        <mxCell id="tFNJvjeKWlLuB1cjg8E8-4" value="" style="edgeStyle=orthogonalEdgeStyle;rounded=0;orthogonalLoop=1;jettySize=auto;html=1;endArrow=none;endFill=0;dashed=1;opacity=50;" parent="1" source="zGD6f_UGwgvzg6_H2TGE-2" target="tFNJvjeKWlLuB1cjg8E8-3" edge="1">
          <mxGeometry relative="1" as="geometry">
            <Array as="points">
              <mxPoint x="190" y="330" />
              <mxPoint x="190" y="210" />
              <mxPoint x="1030" y="210" />
            </Array>
          </mxGeometry>
        </mxCell>
        <mxCell id="tFNJvjeKWlLuB1cjg8E8-13" value="" style="edgeStyle=orthogonalEdgeStyle;rounded=0;orthogonalLoop=1;jettySize=auto;html=1;dashed=1;endArrow=none;endFill=0;opacity=50;" parent="1" source="zGD6f_UGwgvzg6_H2TGE-6" target="tFNJvjeKWlLuB1cjg8E8-9" edge="1">
          <mxGeometry relative="1" as="geometry">
            <Array as="points">
              <mxPoint x="560" y="280" />
            </Array>
          </mxGeometry>
        </mxCell>
        <mxCell id="S_5JY2q0xqoSdLy2uGYO-32" value="" style="edgeStyle=orthogonalEdgeStyle;rounded=0;orthogonalLoop=1;jettySize=auto;html=1;" parent="1" source="tFNJvjeKWlLuB1cjg8E8-3" target="tFNJvjeKWlLuB1cjg8E8-5" edge="1">
          <mxGeometry relative="1" as="geometry" />
        </mxCell>
        <mxCell id="tFNJvjeKWlLuB1cjg8E8-3" value="camera feed from same&lt;br&gt;viewpoint as the ref img&lt;br&gt;(camera does not move)" style="text;html=1;align=center;verticalAlign=middle;resizable=0;points=[];autosize=1;strokeColor=none;fillColor=none;" parent="1" vertex="1">
          <mxGeometry x="980" y="242.5" width="150" height="60" as="geometry" />
        </mxCell>
        <mxCell id="tFNJvjeKWlLuB1cjg8E8-5" value="person detection and tracking algorithm" style="rounded=1;whiteSpace=wrap;html=1;" parent="1" vertex="1">
          <mxGeometry x="880" y="240" width="80" height="65" as="geometry" />
        </mxCell>
        <mxCell id="tFNJvjeKWlLuB1cjg8E8-8" value="" style="edgeStyle=orthogonalEdgeStyle;rounded=0;orthogonalLoop=1;jettySize=auto;html=1;" parent="1" source="tFNJvjeKWlLuB1cjg8E8-5" target="tFNJvjeKWlLuB1cjg8E8-9" edge="1">
          <mxGeometry relative="1" as="geometry">
            <mxPoint x="945" y="302.5" as="sourcePoint" />
            <mxPoint x="930" y="302.5" as="targetPoint" />
          </mxGeometry>
        </mxCell>
        <mxCell id="tFNJvjeKWlLuB1cjg8E8-9" value="forward homography" style="rounded=1;whiteSpace=wrap;html=1;" parent="1" vertex="1">
          <mxGeometry x="719" y="250" width="90" height="45" as="geometry" />
        </mxCell>
        <mxCell id="tFNJvjeKWlLuB1cjg8E8-10" value="loc_x_px,&lt;br&gt;loc_y_px,&lt;br&gt;timestamp" style="text;html=1;align=center;verticalAlign=middle;resizable=0;points=[];autosize=1;strokeColor=none;fillColor=none;" parent="1" vertex="1">
          <mxGeometry x="807" y="266" width="80" height="60" as="geometry" />
        </mxCell>
        <mxCell id="tFNJvjeKWlLuB1cjg8E8-14" value="merge based on timestamps" style="whiteSpace=wrap;html=1;rounded=1;" parent="1" vertex="1">
          <mxGeometry x="880" y="372.5" width="110" height="40" as="geometry" />
        </mxCell>
        <mxCell id="tFNJvjeKWlLuB1cjg8E8-15" value="" style="edgeStyle=orthogonalEdgeStyle;rounded=0;orthogonalLoop=1;jettySize=auto;html=1;" parent="1" source="tFNJvjeKWlLuB1cjg8E8-9" target="tFNJvjeKWlLuB1cjg8E8-14" edge="1">
          <mxGeometry relative="1" as="geometry">
            <Array as="points">
              <mxPoint x="770" y="340" />
              <mxPoint x="935" y="340" />
            </Array>
          </mxGeometry>
        </mxCell>
        <mxCell id="tFNJvjeKWlLuB1cjg8E8-16" value="loc_x, loc_y,&lt;br&gt;timestamp" style="text;html=1;align=center;verticalAlign=middle;resizable=0;points=[];autosize=1;strokeColor=none;fillColor=none;" parent="1" vertex="1">
          <mxGeometry x="800" y="336" width="90" height="40" as="geometry" />
        </mxCell>
        <mxCell id="tFNJvjeKWlLuB1cjg8E8-24" value="" style="edgeStyle=orthogonalEdgeStyle;rounded=0;orthogonalLoop=1;jettySize=auto;html=1;" parent="1" source="tFNJvjeKWlLuB1cjg8E8-22" target="tFNJvjeKWlLuB1cjg8E8-14" edge="1">
          <mxGeometry relative="1" as="geometry" />
        </mxCell>
        <mxCell id="tFNJvjeKWlLuB1cjg8E8-22" value="Wireshark RSS recording" style="rounded=1;whiteSpace=wrap;html=1;" parent="1" vertex="1">
          <mxGeometry x="719" y="362.5" width="80" height="60" as="geometry" />
        </mxCell>
        <mxCell id="S_5JY2q0xqoSdLy2uGYO-20" value="" style="edgeStyle=orthogonalEdgeStyle;rounded=0;orthogonalLoop=1;jettySize=auto;html=1;dashed=1;" parent="1" source="tFNJvjeKWlLuB1cjg8E8-25" target="S_5JY2q0xqoSdLy2uGYO-17" edge="1">
          <mxGeometry relative="1" as="geometry">
            <Array as="points">
              <mxPoint x="1075" y="514" />
            </Array>
          </mxGeometry>
        </mxCell>
        <mxCell id="tFNJvjeKWlLuB1cjg8E8-25" value="single data point:&lt;br&gt;loc_x, loc_y,&lt;br&gt;RSS from &lt;br&gt;APs (vec),&lt;br&gt;timestamp" style="text;html=1;align=center;verticalAlign=middle;resizable=0;points=[];autosize=1;strokeColor=none;fillColor=none;" parent="1" vertex="1">
          <mxGeometry x="1020" y="367.5" width="110" height="90" as="geometry" />
        </mxCell>
        <mxCell id="tFNJvjeKWlLuB1cjg8E8-31" value="" style="edgeStyle=orthogonalEdgeStyle;rounded=0;orthogonalLoop=1;jettySize=auto;html=1;" parent="1" source="tFNJvjeKWlLuB1cjg8E8-14" target="tFNJvjeKWlLuB1cjg8E8-25" edge="1">
          <mxGeometry relative="1" as="geometry">
            <Array as="points">
              <mxPoint x="1000" y="393" />
              <mxPoint x="1000" y="413" />
            </Array>
          </mxGeometry>
        </mxCell>
        <mxCell id="tFNJvjeKWlLuB1cjg8E8-26" value="RSS from&lt;br&gt;APs (vector),&lt;br&gt;timestamp" style="text;html=1;align=center;verticalAlign=middle;resizable=0;points=[];autosize=1;strokeColor=none;fillColor=none;" parent="1" vertex="1">
          <mxGeometry x="799" y="390" width="90" height="60" as="geometry" />
        </mxCell>
        <mxCell id="tFNJvjeKWlLuB1cjg8E8-29" value="" style="edgeStyle=orthogonalEdgeStyle;rounded=0;orthogonalLoop=1;jettySize=auto;html=1;" parent="1" source="tFNJvjeKWlLuB1cjg8E8-28" target="tFNJvjeKWlLuB1cjg8E8-22" edge="1">
          <mxGeometry relative="1" as="geometry" />
        </mxCell>
        <mxCell id="tFNJvjeKWlLuB1cjg8E8-28" value="" style="sketch=0;aspect=fixed;pointerEvents=1;shadow=0;dashed=0;html=1;strokeColor=none;labelPosition=center;verticalLabelPosition=bottom;verticalAlign=top;align=center;fillColor=#000000;shape=mxgraph.mscae.enterprise.wireless_connection" parent="1" vertex="1">
          <mxGeometry x="654" y="367.5" width="42" height="50" as="geometry" />
        </mxCell>
        <mxCell id="tFNJvjeKWlLuB1cjg8E8-30" value="monitoring mode&lt;br&gt;wifi interface" style="text;html=1;align=center;verticalAlign=middle;resizable=0;points=[];autosize=1;strokeColor=none;fillColor=none;" parent="1" vertex="1">
          <mxGeometry x="620" y="417.5" width="110" height="40" as="geometry" />
        </mxCell>
        <mxCell id="zGD6f_UGwgvzg6_H2TGE-1" value="PnP algorithm" style="rounded=1;whiteSpace=wrap;html=1;" parent="1" vertex="1">
          <mxGeometry x="350" y="315" width="80" height="30" as="geometry" />
        </mxCell>
        <mxCell id="zGD6f_UGwgvzg6_H2TGE-4" value="" style="edgeStyle=orthogonalEdgeStyle;rounded=0;orthogonalLoop=1;jettySize=auto;html=1;" parent="1" source="zGD6f_UGwgvzg6_H2TGE-2" target="zGD6f_UGwgvzg6_H2TGE-1" edge="1">
          <mxGeometry relative="1" as="geometry" />
        </mxCell>
        <mxCell id="zGD6f_UGwgvzg6_H2TGE-2" value="reference&lt;br&gt;image" style="text;html=1;align=center;verticalAlign=middle;resizable=0;points=[];autosize=1;strokeColor=none;fillColor=none;" parent="1" vertex="1">
          <mxGeometry x="260" y="310" width="70" height="40" as="geometry" />
        </mxCell>
        <mxCell id="zGD6f_UGwgvzg6_H2TGE-5" value="" style="edgeStyle=orthogonalEdgeStyle;rounded=0;orthogonalLoop=1;jettySize=auto;html=1;" parent="1" source="zGD6f_UGwgvzg6_H2TGE-3" target="zGD6f_UGwgvzg6_H2TGE-1" edge="1">
          <mxGeometry relative="1" as="geometry">
            <Array as="points">
              <mxPoint x="390" y="300" />
              <mxPoint x="390" y="300" />
            </Array>
          </mxGeometry>
        </mxCell>
        <mxCell id="zGD6f_UGwgvzg6_H2TGE-3" value="aruco tags at &lt;br&gt;known locations" style="text;html=1;align=center;verticalAlign=middle;resizable=0;points=[];autosize=1;strokeColor=none;fillColor=none;" parent="1" vertex="1">
          <mxGeometry x="335" y="245" width="110" height="40" as="geometry" />
        </mxCell>
        <mxCell id="zGD6f_UGwgvzg6_H2TGE-6" value="2D homography matrix &lt;br&gt;between &quot;pixel plane&quot;&lt;br&gt;and real plane" style="text;html=1;align=center;verticalAlign=middle;resizable=0;points=[];autosize=1;strokeColor=none;fillColor=none;" parent="1" vertex="1">
          <mxGeometry x="455" y="300" width="140" height="60" as="geometry" />
        </mxCell>
        <mxCell id="zGD6f_UGwgvzg6_H2TGE-7" value="" style="edgeStyle=orthogonalEdgeStyle;rounded=0;orthogonalLoop=1;jettySize=auto;html=1;" parent="1" source="zGD6f_UGwgvzg6_H2TGE-1" target="zGD6f_UGwgvzg6_H2TGE-6" edge="1">
          <mxGeometry relative="1" as="geometry" />
        </mxCell>
        <mxCell id="tFNJvjeKWlLuB1cjg8E8-18" value="&lt;div style=&quot;font-size: 17px;&quot;&gt;&lt;font color=&quot;#b85450&quot;&gt;&lt;b&gt;Camera Calibration, runs once&lt;/b&gt;&lt;/font&gt;&lt;/div&gt;" style="text;html=1;align=right;verticalAlign=middle;resizable=0;points=[];autosize=1;strokeColor=none;fillColor=none;" parent="1" vertex="1">
          <mxGeometry x="210" y="350" width="270" height="30" as="geometry" />
        </mxCell>
        <mxCell id="S_5JY2q0xqoSdLy2uGYO-28" value="" style="edgeStyle=orthogonalEdgeStyle;rounded=0;orthogonalLoop=1;jettySize=auto;html=1;" parent="1" source="S_5JY2q0xqoSdLy2uGYO-12" target="S_5JY2q0xqoSdLy2uGYO-27" edge="1">
          <mxGeometry relative="1" as="geometry">
            <Array as="points">
              <mxPoint x="420" y="459" />
              <mxPoint x="420" y="459" />
            </Array>
          </mxGeometry>
        </mxCell>
        <mxCell id="S_5JY2q0xqoSdLy2uGYO-12" value="live RSS feed" style="rounded=1;whiteSpace=wrap;html=1;" parent="1" vertex="1">
          <mxGeometry x="289" y="441.75" width="80" height="26.5" as="geometry" />
        </mxCell>
        <mxCell id="S_5JY2q0xqoSdLy2uGYO-14" value="" style="edgeStyle=orthogonalEdgeStyle;rounded=0;orthogonalLoop=1;jettySize=auto;html=1;" parent="1" source="S_5JY2q0xqoSdLy2uGYO-15" target="S_5JY2q0xqoSdLy2uGYO-12" edge="1">
          <mxGeometry relative="1" as="geometry" />
        </mxCell>
        <mxCell id="S_5JY2q0xqoSdLy2uGYO-15" value="" style="sketch=0;aspect=fixed;pointerEvents=1;shadow=0;dashed=0;html=1;strokeColor=none;labelPosition=center;verticalLabelPosition=bottom;verticalAlign=top;align=center;fillColor=#000000;shape=mxgraph.mscae.enterprise.wireless_connection" parent="1" vertex="1">
          <mxGeometry x="224" y="430" width="42" height="50" as="geometry" />
        </mxCell>
        <mxCell id="S_5JY2q0xqoSdLy2uGYO-40" value="" style="edgeStyle=orthogonalEdgeStyle;rounded=0;orthogonalLoop=1;jettySize=auto;html=1;dashed=1;endArrow=none;endFill=0;opacity=50;" parent="1" source="S_5JY2q0xqoSdLy2uGYO-17" target="S_5JY2q0xqoSdLy2uGYO-27" edge="1">
          <mxGeometry relative="1" as="geometry">
            <Array as="points">
              <mxPoint x="610" y="514" />
              <mxPoint x="610" y="400" />
              <mxPoint x="430" y="400" />
            </Array>
          </mxGeometry>
        </mxCell>
        <mxCell id="S_5JY2q0xqoSdLy2uGYO-17" value="RSS-based positioning algorithm" style="rounded=1;whiteSpace=wrap;html=1;" parent="1" vertex="1">
          <mxGeometry x="640" y="499" width="136" height="30" as="geometry" />
        </mxCell>
        <mxCell id="S_5JY2q0xqoSdLy2uGYO-21" value="algorithm development, k-fold test-train&lt;br&gt;split and training-calibration" style="text;html=1;align=center;verticalAlign=middle;resizable=0;points=[];autosize=1;strokeColor=none;fillColor=none;" parent="1" vertex="1">
          <mxGeometry x="795" y="514" width="230" height="40" as="geometry" />
        </mxCell>
        <mxCell id="S_5JY2q0xqoSdLy2uGYO-25" value="" style="group" parent="1" vertex="1" connectable="0">
          <mxGeometry x="1042" y="503" width="26" height="20" as="geometry" />
        </mxCell>
        <mxCell id="S_5JY2q0xqoSdLy2uGYO-23" value="" style="endArrow=none;html=1;rounded=0;" parent="S_5JY2q0xqoSdLy2uGYO-25" edge="1">
          <mxGeometry width="50" height="50" relative="1" as="geometry">
            <mxPoint y="20" as="sourcePoint" />
            <mxPoint x="20" as="targetPoint" />
          </mxGeometry>
        </mxCell>
        <mxCell id="S_5JY2q0xqoSdLy2uGYO-24" value="" style="endArrow=none;html=1;rounded=0;" parent="S_5JY2q0xqoSdLy2uGYO-25" edge="1">
          <mxGeometry width="50" height="50" relative="1" as="geometry">
            <mxPoint x="6" y="20" as="sourcePoint" />
            <mxPoint x="26" as="targetPoint" />
          </mxGeometry>
        </mxCell>
        <mxCell id="S_5JY2q0xqoSdLy2uGYO-26" value="many data&lt;br&gt;points" style="text;html=1;align=center;verticalAlign=middle;resizable=0;points=[];autosize=1;strokeColor=none;fillColor=none;" parent="1" vertex="1">
          <mxGeometry x="1015" y="518" width="80" height="40" as="geometry" />
        </mxCell>
        <mxCell id="S_5JY2q0xqoSdLy2uGYO-29" value="" style="edgeStyle=orthogonalEdgeStyle;rounded=0;orthogonalLoop=1;jettySize=auto;html=1;" parent="1" source="S_5JY2q0xqoSdLy2uGYO-27" target="S_5JY2q0xqoSdLy2uGYO-37" edge="1">
          <mxGeometry relative="1" as="geometry">
            <mxPoint x="495" y="455" as="targetPoint" />
          </mxGeometry>
        </mxCell>
        <mxCell id="S_5JY2q0xqoSdLy2uGYO-27" value="RSS-based positioning algorithm" style="rounded=1;whiteSpace=wrap;html=1;" parent="1" vertex="1">
          <mxGeometry x="390" y="430" width="80" height="49" as="geometry" />
        </mxCell>
        <mxCell id="S_5JY2q0xqoSdLy2uGYO-31" value="&lt;div style=&quot;&quot;&gt;&lt;b style=&quot;background-color: initial;&quot;&gt;&lt;font style=&quot;font-size: 17px;&quot; color=&quot;#ff8000&quot;&gt;Training, runs once&lt;/font&gt;&lt;/b&gt;&lt;/div&gt;" style="text;html=1;align=right;verticalAlign=middle;resizable=0;points=[];autosize=1;strokeColor=none;fillColor=none;" parent="1" vertex="1">
          <mxGeometry x="619" y="530" width="180" height="30" as="geometry" />
        </mxCell>
        <mxCell id="S_5JY2q0xqoSdLy2uGYO-37" value="loc_x, loc_y&lt;br&gt;predictions" style="text;html=1;align=center;verticalAlign=middle;resizable=0;points=[];autosize=1;strokeColor=none;fillColor=none;" parent="1" vertex="1">
          <mxGeometry x="495" y="434.5" width="90" height="40" as="geometry" />
        </mxCell>
        <mxCell id="S_5JY2q0xqoSdLy2uGYO-39" value="&lt;div style=&quot;font-size: 17px;&quot;&gt;&lt;font style=&quot;font-size: 17px;&quot; color=&quot;#6c8ebf&quot;&gt;&lt;b style=&quot;&quot;&gt;Demo / Deployment&lt;/b&gt;&lt;/font&gt;&lt;/div&gt;&lt;div style=&quot;font-size: 17px;&quot;&gt;&lt;font style=&quot;font-size: 17px;&quot; color=&quot;#6c8ebf&quot;&gt;&lt;b style=&quot;&quot;&gt;runs continuously&lt;/b&gt;&lt;/font&gt;&lt;/div&gt;" style="text;html=1;align=right;verticalAlign=middle;resizable=0;points=[];autosize=1;strokeColor=none;fillColor=none;" parent="1" vertex="1">
          <mxGeometry x="210" y="499" width="180" height="50" as="geometry" />
        </mxCell>
        <mxCell id="S_5JY2q0xqoSdLy2uGYO-41" value="&lt;b&gt;&lt;font style=&quot;font-size: 20px;&quot;&gt;1&lt;/font&gt;&lt;/b&gt;" style="ellipse;whiteSpace=wrap;html=1;aspect=fixed;fillColor=#B85450;strokeColor=none;" parent="1" vertex="1">
          <mxGeometry x="565" y="236" width="30" height="30" as="geometry" />
        </mxCell>
        <mxCell id="S_5JY2q0xqoSdLy2uGYO-43" value="&lt;b&gt;&lt;font style=&quot;font-size: 20px;&quot;&gt;2&lt;/font&gt;&lt;/b&gt;" style="ellipse;whiteSpace=wrap;html=1;aspect=fixed;fillColor=#82B366;strokeColor=none;" parent="1" vertex="1">
          <mxGeometry x="640" y="236" width="30" height="30" as="geometry" />
        </mxCell>
        <mxCell id="S_5JY2q0xqoSdLy2uGYO-44" value="&lt;b&gt;&lt;font style=&quot;font-size: 20px;&quot;&gt;3&lt;/font&gt;&lt;/b&gt;" style="ellipse;whiteSpace=wrap;html=1;aspect=fixed;fillColor=#FF8000;strokeColor=none;" parent="1" vertex="1">
          <mxGeometry x="1095" y="486" width="30" height="30" as="geometry" />
        </mxCell>
        <mxCell id="S_5JY2q0xqoSdLy2uGYO-46" value="&lt;b&gt;&lt;font style=&quot;font-size: 20px;&quot;&gt;4&lt;/font&gt;&lt;/b&gt;" style="ellipse;whiteSpace=wrap;html=1;aspect=fixed;fillColor=#6C8EBF;strokeColor=none;" parent="1" vertex="1">
          <mxGeometry x="545" y="504" width="30" height="30" as="geometry" />
        </mxCell>
        <mxCell id="hxXMfBSCHaWrG_siFubs-1" value="" style="shape=image;verticalLabelPosition=bottom;labelBackgroundColor=default;verticalAlign=top;aspect=fixed;imageAspect=0;image=https://miro.medium.com/v2/resize:fit:300/1*ztBoF0wRtFe_qViMk0akBA.jpeg;" vertex="1" parent="1">
          <mxGeometry x="314" y="250" width="30" height="30" as="geometry" />
        </mxCell>
        <mxCell id="hxXMfBSCHaWrG_siFubs-2" value="" style="fontColor=#0066CC;verticalAlign=top;verticalLabelPosition=bottom;labelPosition=center;align=center;html=1;outlineConnect=0;fillColor=#000000;strokeColor=default;gradientColor=none;gradientDirection=north;strokeWidth=2;shape=mxgraph.networks.security_camera;" vertex="1" parent="1">
          <mxGeometry x="235.66000000000003" y="270" width="53.34" height="40" as="geometry" />
        </mxCell>
        <mxCell id="hxXMfBSCHaWrG_siFubs-3" value="&lt;div style=&quot;font-size: 17px;&quot;&gt;&lt;b style=&quot;&quot;&gt;&lt;font color=&quot;#82b366&quot;&gt;Data Collection,&lt;/font&gt;&lt;/b&gt;&lt;/div&gt;&lt;div style=&quot;font-size: 17px;&quot;&gt;&lt;b style=&quot;&quot;&gt;&lt;font color=&quot;#82b366&quot;&gt;runs once&lt;/font&gt;&lt;/b&gt;&lt;/div&gt;" style="text;html=1;align=left;verticalAlign=middle;resizable=0;points=[];autosize=1;strokeColor=none;fillColor=none;" vertex="1" parent="1">
          <mxGeometry x="626" y="310" width="150" height="50" as="geometry" />
        </mxCell>
        <mxCell id="hxXMfBSCHaWrG_siFubs-4" value="&lt;div style=&quot;font-size: 17px;&quot;&gt;&lt;font color=&quot;#6c8ebf&quot;&gt;(no camera,&lt;/font&gt;&lt;/div&gt;&lt;div style=&quot;font-size: 17px;&quot;&gt;&lt;font color=&quot;#6c8ebf&quot;&gt;no tags)&lt;/font&gt;&lt;/div&gt;" style="text;html=1;align=right;verticalAlign=middle;resizable=0;points=[];autosize=1;strokeColor=none;fillColor=none;" vertex="1" parent="1">
          <mxGeometry x="410" y="503" width="110" height="50" as="geometry" />
        </mxCell>
      </root>
    </mxGraphModel>
  </diagram>
  <diagram name="Copy of Page-1" id="ZQ4yz_pNCNp-w9rCKjl2">
    <mxGraphModel dx="1584" dy="1802" grid="1" gridSize="10" guides="1" tooltips="1" connect="1" arrows="1" fold="1" page="1" pageScale="1" pageWidth="1169" pageHeight="827" math="0" shadow="0">
      <root>
        <mxCell id="nP10EgbO1hsb7oSFkEV0-0" />
        <mxCell id="nP10EgbO1hsb7oSFkEV0-1" parent="nP10EgbO1hsb7oSFkEV0-0" />
        <mxCell id="nP10EgbO1hsb7oSFkEV0-4" value="" style="rounded=1;whiteSpace=wrap;html=1;fillColor=none;strokeColor=#6c8ebf;dashed=1;strokeWidth=3;" vertex="1" parent="nP10EgbO1hsb7oSFkEV0-1">
          <mxGeometry x="210" y="480" width="500" height="110" as="geometry" />
        </mxCell>
        <mxCell id="nP10EgbO1hsb7oSFkEV0-19" value="" style="edgeStyle=orthogonalEdgeStyle;rounded=0;orthogonalLoop=1;jettySize=auto;html=1;dashed=1;" edge="1" parent="nP10EgbO1hsb7oSFkEV0-1" source="nP10EgbO1hsb7oSFkEV0-20" target="nP10EgbO1hsb7oSFkEV0-39">
          <mxGeometry relative="1" as="geometry">
            <Array as="points">
              <mxPoint x="670" y="390" />
            </Array>
          </mxGeometry>
        </mxCell>
        <mxCell id="nP10EgbO1hsb7oSFkEV0-38" value="" style="edgeStyle=orthogonalEdgeStyle;rounded=0;orthogonalLoop=1;jettySize=auto;html=1;dashed=1;endArrow=none;endFill=0;opacity=50;entryX=0.5;entryY=0;entryDx=0;entryDy=0;" edge="1" parent="nP10EgbO1hsb7oSFkEV0-1" source="nP10EgbO1hsb7oSFkEV0-39" target="nP10EgbO1hsb7oSFkEV0-46">
          <mxGeometry relative="1" as="geometry">
            <Array as="points">
              <mxPoint x="299" y="470" />
              <mxPoint x="492" y="470" />
            </Array>
          </mxGeometry>
        </mxCell>
        <mxCell id="nP10EgbO1hsb7oSFkEV0-5" value="" style="rounded=1;whiteSpace=wrap;html=1;fillColor=none;strokeColor=#82b366;dashed=1;strokeWidth=3;" vertex="1" parent="nP10EgbO1hsb7oSFkEV0-1">
          <mxGeometry x="210" y="80" width="500" height="250" as="geometry" />
        </mxCell>
        <mxCell id="nP10EgbO1hsb7oSFkEV0-10" value="person detection and tracking" style="rounded=1;whiteSpace=wrap;html=1;" vertex="1" parent="nP10EgbO1hsb7oSFkEV0-1">
          <mxGeometry x="340" y="105.25" width="60" height="114.75" as="geometry" />
        </mxCell>
        <mxCell id="nP10EgbO1hsb7oSFkEV0-11" value="" style="edgeStyle=orthogonalEdgeStyle;rounded=0;orthogonalLoop=1;jettySize=auto;html=1;" edge="1" parent="nP10EgbO1hsb7oSFkEV0-1" source="nP10EgbO1hsb7oSFkEV0-10" target="nP10EgbO1hsb7oSFkEV0-12">
          <mxGeometry relative="1" as="geometry">
            <mxPoint x="820" y="245" as="sourcePoint" />
            <mxPoint x="805" y="245" as="targetPoint" />
          </mxGeometry>
        </mxCell>
        <mxCell id="nP10EgbO1hsb7oSFkEV0-12" value="forward homography" style="rounded=1;whiteSpace=wrap;html=1;" vertex="1" parent="nP10EgbO1hsb7oSFkEV0-1">
          <mxGeometry x="480" y="140.12" width="90" height="45" as="geometry" />
        </mxCell>
        <mxCell id="nP10EgbO1hsb7oSFkEV0-13" value="loc_x_px,&lt;br&gt;loc_y_px,&lt;br&gt;timestamp" style="text;html=1;align=center;verticalAlign=middle;resizable=0;points=[];autosize=1;strokeColor=none;fillColor=none;" vertex="1" parent="nP10EgbO1hsb7oSFkEV0-1">
          <mxGeometry x="400" y="160" width="80" height="60" as="geometry" />
        </mxCell>
        <mxCell id="GdUm85eJrc_ZiJKzJKKC-23" value="" style="edgeStyle=orthogonalEdgeStyle;rounded=0;orthogonalLoop=1;jettySize=auto;html=1;" edge="1" parent="nP10EgbO1hsb7oSFkEV0-1" source="nP10EgbO1hsb7oSFkEV0-14" target="nP10EgbO1hsb7oSFkEV0-20">
          <mxGeometry relative="1" as="geometry" />
        </mxCell>
        <mxCell id="nP10EgbO1hsb7oSFkEV0-14" value="merge based on timestamps" style="whiteSpace=wrap;html=1;rounded=1;" vertex="1" parent="nP10EgbO1hsb7oSFkEV0-1">
          <mxGeometry x="470" y="220" width="110" height="40" as="geometry" />
        </mxCell>
        <mxCell id="nP10EgbO1hsb7oSFkEV0-15" value="" style="edgeStyle=orthogonalEdgeStyle;rounded=0;orthogonalLoop=1;jettySize=auto;html=1;" edge="1" parent="nP10EgbO1hsb7oSFkEV0-1" source="nP10EgbO1hsb7oSFkEV0-12" target="nP10EgbO1hsb7oSFkEV0-14">
          <mxGeometry relative="1" as="geometry">
            <Array as="points">
              <mxPoint x="525" y="190" />
              <mxPoint x="525" y="190" />
            </Array>
          </mxGeometry>
        </mxCell>
        <mxCell id="nP10EgbO1hsb7oSFkEV0-17" value="" style="edgeStyle=orthogonalEdgeStyle;rounded=0;orthogonalLoop=1;jettySize=auto;html=1;" edge="1" parent="nP10EgbO1hsb7oSFkEV0-1" source="GdUm85eJrc_ZiJKzJKKC-21" target="nP10EgbO1hsb7oSFkEV0-14">
          <mxGeometry relative="1" as="geometry">
            <mxPoint x="634.0285714285715" y="305" as="sourcePoint" />
          </mxGeometry>
        </mxCell>
        <mxCell id="nP10EgbO1hsb7oSFkEV0-20" value="single data point:&lt;br&gt;loc_x, loc_y,&lt;br&gt;RSS from &lt;br&gt;APs (vec),&lt;br&gt;timestamp" style="text;html=1;align=center;verticalAlign=middle;resizable=0;points=[];autosize=1;strokeColor=none;fillColor=none;" vertex="1" parent="nP10EgbO1hsb7oSFkEV0-1">
          <mxGeometry x="600" y="195" width="110" height="90" as="geometry" />
        </mxCell>
        <mxCell id="nP10EgbO1hsb7oSFkEV0-22" value="RSS from&lt;br&gt;APs (vector),&lt;br&gt;timestamp" style="text;html=1;align=center;verticalAlign=middle;resizable=0;points=[];autosize=1;strokeColor=none;fillColor=none;" vertex="1" parent="nP10EgbO1hsb7oSFkEV0-1">
          <mxGeometry x="387" y="245" width="90" height="60" as="geometry" />
        </mxCell>
        <mxCell id="nP10EgbO1hsb7oSFkEV0-51" value="&lt;b&gt;&lt;font style=&quot;font-size: 20px;&quot;&gt;2&lt;/font&gt;&lt;/b&gt;" style="ellipse;whiteSpace=wrap;html=1;aspect=fixed;fillColor=#82B366;strokeColor=none;" vertex="1" parent="nP10EgbO1hsb7oSFkEV0-1">
          <mxGeometry x="660" y="90" width="30" height="30" as="geometry" />
        </mxCell>
        <mxCell id="nP10EgbO1hsb7oSFkEV0-56" value="&lt;div style=&quot;font-size: 17px;&quot;&gt;&lt;b style=&quot;&quot;&gt;&lt;font color=&quot;#82b366&quot;&gt;Data Collection,&lt;/font&gt;&lt;/b&gt;&lt;/div&gt;&lt;div style=&quot;font-size: 17px;&quot;&gt;&lt;b style=&quot;&quot;&gt;&lt;font color=&quot;#82b366&quot;&gt;runs once&lt;/font&gt;&lt;/b&gt;&lt;/div&gt;" style="text;html=1;align=left;verticalAlign=middle;resizable=0;points=[];autosize=1;strokeColor=none;fillColor=none;" vertex="1" parent="nP10EgbO1hsb7oSFkEV0-1">
          <mxGeometry x="575" y="130" width="150" height="50" as="geometry" />
        </mxCell>
        <mxCell id="GdUm85eJrc_ZiJKzJKKC-4" value="" style="group" vertex="1" connectable="0" parent="nP10EgbO1hsb7oSFkEV0-1">
          <mxGeometry x="220" y="96" width="90" height="74" as="geometry" />
        </mxCell>
        <mxCell id="nP10EgbO1hsb7oSFkEV0-9" value="camera feed" style="text;html=1;align=center;verticalAlign=middle;resizable=0;points=[];autosize=1;strokeColor=none;fillColor=none;" vertex="1" parent="GdUm85eJrc_ZiJKzJKKC-4">
          <mxGeometry y="44" width="90" height="30" as="geometry" />
        </mxCell>
        <mxCell id="GdUm85eJrc_ZiJKzJKKC-3" value="" style="fontColor=#0066CC;verticalAlign=top;verticalLabelPosition=bottom;labelPosition=center;align=center;html=1;outlineConnect=0;fillColor=#000000;strokeColor=default;gradientColor=none;gradientDirection=north;strokeWidth=2;shape=mxgraph.networks.security_camera;" vertex="1" parent="GdUm85eJrc_ZiJKzJKKC-4">
          <mxGeometry x="20.000000000000114" width="53.34" height="40" as="geometry" />
        </mxCell>
        <mxCell id="GdUm85eJrc_ZiJKzJKKC-13" value="" style="edgeStyle=orthogonalEdgeStyle;rounded=0;orthogonalLoop=1;jettySize=auto;html=1;dashed=1;endArrow=none;endFill=0;" edge="1" parent="nP10EgbO1hsb7oSFkEV0-1" source="nP10EgbO1hsb7oSFkEV0-31" target="nP10EgbO1hsb7oSFkEV0-12">
          <mxGeometry relative="1" as="geometry">
            <mxPoint x="675.0000000000002" y="30" as="targetPoint" />
          </mxGeometry>
        </mxCell>
        <mxCell id="GdUm85eJrc_ZiJKzJKKC-16" value="" style="edgeStyle=orthogonalEdgeStyle;rounded=0;orthogonalLoop=1;jettySize=auto;html=1;" edge="1" parent="nP10EgbO1hsb7oSFkEV0-1">
          <mxGeometry relative="1" as="geometry">
            <mxPoint x="310" y="140" as="sourcePoint" />
            <mxPoint x="340" y="140" as="targetPoint" />
          </mxGeometry>
        </mxCell>
        <mxCell id="GdUm85eJrc_ZiJKzJKKC-17" value="" style="edgeStyle=orthogonalEdgeStyle;rounded=0;orthogonalLoop=1;jettySize=auto;html=1;" edge="1" parent="nP10EgbO1hsb7oSFkEV0-1">
          <mxGeometry relative="1" as="geometry">
            <mxPoint x="290" y="200" as="sourcePoint" />
            <mxPoint x="340" y="200" as="targetPoint" />
          </mxGeometry>
        </mxCell>
        <mxCell id="nP10EgbO1hsb7oSFkEV0-24" value="" style="sketch=0;aspect=fixed;pointerEvents=1;shadow=0;dashed=0;html=1;strokeColor=none;labelPosition=center;verticalLabelPosition=bottom;verticalAlign=top;align=center;fillColor=#000000;shape=mxgraph.mscae.enterprise.wireless_connection" vertex="1" parent="nP10EgbO1hsb7oSFkEV0-1">
          <mxGeometry x="248.19999999999996" y="280" width="33.6" height="40" as="geometry" />
        </mxCell>
        <mxCell id="GdUm85eJrc_ZiJKzJKKC-7" value="" style="shape=image;verticalLabelPosition=bottom;labelBackgroundColor=default;verticalAlign=top;aspect=fixed;imageAspect=0;image=https://miro.medium.com/v2/resize:fit:300/1*ztBoF0wRtFe_qViMk0akBA.jpeg;" vertex="1" parent="nP10EgbO1hsb7oSFkEV0-1">
          <mxGeometry x="254.4" y="185" width="30" height="30" as="geometry" />
        </mxCell>
        <mxCell id="GdUm85eJrc_ZiJKzJKKC-8" value="aruco tag and&lt;br&gt;wifi monitor mode &lt;br&gt;device on RSS &lt;br&gt;data collector" style="text;html=1;align=center;verticalAlign=middle;resizable=0;points=[];autosize=1;strokeColor=none;fillColor=none;" vertex="1" parent="nP10EgbO1hsb7oSFkEV0-1">
          <mxGeometry x="210" y="210" width="120" height="70" as="geometry" />
        </mxCell>
        <mxCell id="GdUm85eJrc_ZiJKzJKKC-21" value="RSS recorder" style="rounded=1;whiteSpace=wrap;html=1;" vertex="1" parent="nP10EgbO1hsb7oSFkEV0-1">
          <mxGeometry x="340" y="282.63" width="60" height="37.37" as="geometry" />
        </mxCell>
        <mxCell id="GdUm85eJrc_ZiJKzJKKC-22" value="" style="edgeStyle=orthogonalEdgeStyle;rounded=0;orthogonalLoop=1;jettySize=auto;html=1;" edge="1" parent="nP10EgbO1hsb7oSFkEV0-1">
          <mxGeometry relative="1" as="geometry">
            <mxPoint x="290" y="300" as="sourcePoint" />
            <mxPoint x="340" y="300" as="targetPoint" />
          </mxGeometry>
        </mxCell>
        <mxCell id="nP10EgbO1hsb7oSFkEV0-2" value="" style="rounded=1;whiteSpace=wrap;html=1;fillColor=none;strokeColor=#FF8000;strokeWidth=3;dashed=1;" vertex="1" parent="nP10EgbO1hsb7oSFkEV0-1">
          <mxGeometry x="211" y="350" width="499" height="110" as="geometry" />
        </mxCell>
        <mxCell id="nP10EgbO1hsb7oSFkEV0-39" value="RSS-based positioning algorithm" style="rounded=1;whiteSpace=wrap;html=1;" vertex="1" parent="nP10EgbO1hsb7oSFkEV0-1">
          <mxGeometry x="232" y="363" width="136" height="51" as="geometry" />
        </mxCell>
        <mxCell id="nP10EgbO1hsb7oSFkEV0-40" value="algorithm development" style="text;html=1;align=center;verticalAlign=middle;resizable=0;points=[];autosize=1;strokeColor=none;fillColor=none;" vertex="1" parent="nP10EgbO1hsb7oSFkEV0-1">
          <mxGeometry x="372" y="363" width="140" height="30" as="geometry" />
        </mxCell>
        <mxCell id="nP10EgbO1hsb7oSFkEV0-41" value="" style="group" vertex="1" connectable="0" parent="nP10EgbO1hsb7oSFkEV0-1">
          <mxGeometry x="633" y="380" width="26" height="20" as="geometry" />
        </mxCell>
        <mxCell id="nP10EgbO1hsb7oSFkEV0-42" value="" style="endArrow=none;html=1;rounded=0;" edge="1" parent="nP10EgbO1hsb7oSFkEV0-41">
          <mxGeometry width="50" height="50" relative="1" as="geometry">
            <mxPoint y="20" as="sourcePoint" />
            <mxPoint x="20" as="targetPoint" />
          </mxGeometry>
        </mxCell>
        <mxCell id="nP10EgbO1hsb7oSFkEV0-43" value="" style="endArrow=none;html=1;rounded=0;" edge="1" parent="nP10EgbO1hsb7oSFkEV0-41">
          <mxGeometry width="50" height="50" relative="1" as="geometry">
            <mxPoint x="6" y="20" as="sourcePoint" />
            <mxPoint x="26" as="targetPoint" />
          </mxGeometry>
        </mxCell>
        <mxCell id="nP10EgbO1hsb7oSFkEV0-44" value="many data points" style="text;html=1;align=center;verticalAlign=middle;resizable=0;points=[];autosize=1;strokeColor=none;fillColor=none;" vertex="1" parent="nP10EgbO1hsb7oSFkEV0-1">
          <mxGeometry x="538" y="395" width="110" height="30" as="geometry" />
        </mxCell>
        <mxCell id="nP10EgbO1hsb7oSFkEV0-47" value="&lt;div style=&quot;&quot;&gt;&lt;b style=&quot;background-color: initial;&quot;&gt;&lt;font style=&quot;font-size: 17px;&quot; color=&quot;#ff8000&quot;&gt;Training, runs once&lt;/font&gt;&lt;/b&gt;&lt;/div&gt;" style="text;html=1;align=right;verticalAlign=middle;resizable=0;points=[];autosize=1;strokeColor=none;fillColor=none;" vertex="1" parent="nP10EgbO1hsb7oSFkEV0-1">
          <mxGeometry x="468" y="425" width="180" height="30" as="geometry" />
        </mxCell>
        <mxCell id="nP10EgbO1hsb7oSFkEV0-52" value="&lt;b&gt;&lt;font style=&quot;font-size: 20px;&quot;&gt;3&lt;/font&gt;&lt;/b&gt;" style="ellipse;whiteSpace=wrap;html=1;aspect=fixed;fillColor=#FF8000;strokeColor=none;" vertex="1" parent="nP10EgbO1hsb7oSFkEV0-1">
          <mxGeometry x="660" y="420" width="30" height="30" as="geometry" />
        </mxCell>
        <mxCell id="GdUm85eJrc_ZiJKzJKKC-6" value="" style="shape=image;verticalLabelPosition=bottom;labelBackgroundColor=default;verticalAlign=top;aspect=fixed;imageAspect=0;image=https://miro.medium.com/v2/resize:fit:300/1*ztBoF0wRtFe_qViMk0akBA.jpeg;" vertex="1" parent="nP10EgbO1hsb7oSFkEV0-1">
          <mxGeometry x="304" y="-80" width="30" height="30" as="geometry" />
        </mxCell>
        <mxCell id="GdUm85eJrc_ZiJKzJKKC-5" value="" style="shape=image;verticalLabelPosition=bottom;labelBackgroundColor=default;verticalAlign=top;aspect=fixed;imageAspect=0;image=https://miro.medium.com/v2/resize:fit:300/1*ztBoF0wRtFe_qViMk0akBA.jpeg;" vertex="1" parent="nP10EgbO1hsb7oSFkEV0-1">
          <mxGeometry x="309" y="-75" width="30" height="30" as="geometry" />
        </mxCell>
        <mxCell id="nP10EgbO1hsb7oSFkEV0-3" value="" style="rounded=1;whiteSpace=wrap;html=1;fillColor=none;strokeColor=#b85450;dashed=1;strokeWidth=3;" vertex="1" parent="nP10EgbO1hsb7oSFkEV0-1">
          <mxGeometry x="210" y="-90" width="500" height="150" as="geometry" />
        </mxCell>
        <mxCell id="nP10EgbO1hsb7oSFkEV0-26" value="PnP algorithm" style="rounded=1;whiteSpace=wrap;html=1;" vertex="1" parent="nP10EgbO1hsb7oSFkEV0-1">
          <mxGeometry x="350" y="-5" width="80" height="30" as="geometry" />
        </mxCell>
        <mxCell id="nP10EgbO1hsb7oSFkEV0-27" value="" style="edgeStyle=orthogonalEdgeStyle;rounded=0;orthogonalLoop=1;jettySize=auto;html=1;" edge="1" parent="nP10EgbO1hsb7oSFkEV0-1" source="nP10EgbO1hsb7oSFkEV0-28" target="nP10EgbO1hsb7oSFkEV0-26">
          <mxGeometry relative="1" as="geometry" />
        </mxCell>
        <mxCell id="nP10EgbO1hsb7oSFkEV0-28" value="reference image&lt;br&gt;from&amp;nbsp;camera" style="text;html=1;align=center;verticalAlign=middle;resizable=0;points=[];autosize=1;strokeColor=none;fillColor=none;" vertex="1" parent="nP10EgbO1hsb7oSFkEV0-1">
          <mxGeometry x="210" y="-10" width="110" height="40" as="geometry" />
        </mxCell>
        <mxCell id="nP10EgbO1hsb7oSFkEV0-29" value="" style="edgeStyle=orthogonalEdgeStyle;rounded=0;orthogonalLoop=1;jettySize=auto;html=1;" edge="1" parent="nP10EgbO1hsb7oSFkEV0-1" source="nP10EgbO1hsb7oSFkEV0-30" target="nP10EgbO1hsb7oSFkEV0-26">
          <mxGeometry relative="1" as="geometry">
            <Array as="points">
              <mxPoint x="390" y="-20" />
              <mxPoint x="390" y="-20" />
            </Array>
          </mxGeometry>
        </mxCell>
        <mxCell id="nP10EgbO1hsb7oSFkEV0-30" value="aruco tags at &lt;br&gt;known locations" style="text;html=1;align=center;verticalAlign=middle;resizable=0;points=[];autosize=1;strokeColor=none;fillColor=none;" vertex="1" parent="nP10EgbO1hsb7oSFkEV0-1">
          <mxGeometry x="335" y="-75" width="110" height="40" as="geometry" />
        </mxCell>
        <mxCell id="nP10EgbO1hsb7oSFkEV0-31" value="2D homography matrix &lt;br&gt;between &quot;pixel plane&quot;&lt;br&gt;and real plane" style="text;html=1;align=center;verticalAlign=middle;resizable=0;points=[];autosize=1;strokeColor=none;fillColor=none;" vertex="1" parent="nP10EgbO1hsb7oSFkEV0-1">
          <mxGeometry x="455" y="-20" width="140" height="60" as="geometry" />
        </mxCell>
        <mxCell id="nP10EgbO1hsb7oSFkEV0-32" value="" style="edgeStyle=orthogonalEdgeStyle;rounded=0;orthogonalLoop=1;jettySize=auto;html=1;" edge="1" parent="nP10EgbO1hsb7oSFkEV0-1" source="nP10EgbO1hsb7oSFkEV0-26" target="nP10EgbO1hsb7oSFkEV0-31">
          <mxGeometry relative="1" as="geometry" />
        </mxCell>
        <mxCell id="nP10EgbO1hsb7oSFkEV0-33" value="&lt;div style=&quot;font-size: 17px;&quot;&gt;&lt;font color=&quot;#b85450&quot;&gt;&lt;b&gt;Camera Calibration,&lt;/b&gt;&lt;/font&gt;&lt;/div&gt;&lt;div style=&quot;font-size: 17px;&quot;&gt;&lt;font color=&quot;#b85450&quot;&gt;&lt;b&gt;runs once&lt;/b&gt;&lt;/font&gt;&lt;/div&gt;" style="text;html=1;align=right;verticalAlign=middle;resizable=0;points=[];autosize=1;strokeColor=none;fillColor=none;" vertex="1" parent="nP10EgbO1hsb7oSFkEV0-1">
          <mxGeometry x="520" y="-45" width="180" height="50" as="geometry" />
        </mxCell>
        <mxCell id="nP10EgbO1hsb7oSFkEV0-50" value="&lt;b&gt;&lt;font style=&quot;font-size: 20px;&quot;&gt;1&lt;/font&gt;&lt;/b&gt;" style="ellipse;whiteSpace=wrap;html=1;aspect=fixed;fillColor=#B85450;strokeColor=none;" vertex="1" parent="nP10EgbO1hsb7oSFkEV0-1">
          <mxGeometry x="660" y="-80" width="30" height="30" as="geometry" />
        </mxCell>
        <mxCell id="nP10EgbO1hsb7oSFkEV0-54" value="" style="shape=image;verticalLabelPosition=bottom;labelBackgroundColor=default;verticalAlign=top;aspect=fixed;imageAspect=0;image=https://miro.medium.com/v2/resize:fit:300/1*ztBoF0wRtFe_qViMk0akBA.jpeg;" vertex="1" parent="nP10EgbO1hsb7oSFkEV0-1">
          <mxGeometry x="314" y="-70" width="30" height="30" as="geometry" />
        </mxCell>
        <mxCell id="nP10EgbO1hsb7oSFkEV0-55" value="" style="fontColor=#0066CC;verticalAlign=top;verticalLabelPosition=bottom;labelPosition=center;align=center;html=1;outlineConnect=0;fillColor=#000000;strokeColor=default;gradientColor=none;gradientDirection=north;strokeWidth=2;shape=mxgraph.networks.security_camera;" vertex="1" parent="nP10EgbO1hsb7oSFkEV0-1">
          <mxGeometry x="235.66000000000008" y="-50" width="53.34" height="40" as="geometry" />
        </mxCell>
        <mxCell id="GdUm85eJrc_ZiJKzJKKC-27" value="k-fold test-train split&lt;br&gt;and training-calibration" style="text;html=1;align=center;verticalAlign=middle;resizable=0;points=[];autosize=1;strokeColor=none;fillColor=none;" vertex="1" parent="nP10EgbO1hsb7oSFkEV0-1">
          <mxGeometry x="320" y="414" width="140" height="40" as="geometry" />
        </mxCell>
        <mxCell id="nP10EgbO1hsb7oSFkEV0-35" value="live RSS feed" style="rounded=1;whiteSpace=wrap;html=1;" vertex="1" parent="nP10EgbO1hsb7oSFkEV0-1">
          <mxGeometry x="311.28205128205127" y="511.75" width="102.56410256410257" height="26.5" as="geometry" />
        </mxCell>
        <mxCell id="nP10EgbO1hsb7oSFkEV0-36" value="" style="edgeStyle=orthogonalEdgeStyle;rounded=0;orthogonalLoop=1;jettySize=auto;html=1;" edge="1" parent="nP10EgbO1hsb7oSFkEV0-1" source="nP10EgbO1hsb7oSFkEV0-37" target="nP10EgbO1hsb7oSFkEV0-35">
          <mxGeometry relative="1" as="geometry" />
        </mxCell>
        <mxCell id="nP10EgbO1hsb7oSFkEV0-37" value="" style="sketch=0;aspect=fixed;pointerEvents=1;shadow=0;dashed=0;html=1;strokeColor=none;labelPosition=center;verticalLabelPosition=bottom;verticalAlign=top;align=center;fillColor=#000000;shape=mxgraph.mscae.enterprise.wireless_connection" vertex="1" parent="nP10EgbO1hsb7oSFkEV0-1">
          <mxGeometry x="227.94871794871796" y="500" width="42" height="50" as="geometry" />
        </mxCell>
        <mxCell id="nP10EgbO1hsb7oSFkEV0-46" value="RSS-based positioning algorithm" style="rounded=1;whiteSpace=wrap;html=1;" vertex="1" parent="nP10EgbO1hsb7oSFkEV0-1">
          <mxGeometry x="440.76923076923083" y="500" width="102.56410256410257" height="49" as="geometry" />
        </mxCell>
        <mxCell id="nP10EgbO1hsb7oSFkEV0-34" value="" style="edgeStyle=orthogonalEdgeStyle;rounded=0;orthogonalLoop=1;jettySize=auto;html=1;" edge="1" parent="nP10EgbO1hsb7oSFkEV0-1" source="nP10EgbO1hsb7oSFkEV0-35" target="nP10EgbO1hsb7oSFkEV0-46">
          <mxGeometry relative="1" as="geometry">
            <Array as="points">
              <mxPoint x="479.2307692307692" y="529" />
              <mxPoint x="479.2307692307692" y="529" />
            </Array>
          </mxGeometry>
        </mxCell>
        <mxCell id="nP10EgbO1hsb7oSFkEV0-48" value="loc_x, loc_y&lt;br&gt;predictions" style="text;html=1;align=center;verticalAlign=middle;resizable=0;points=[];autosize=1;strokeColor=none;fillColor=none;" vertex="1" parent="nP10EgbO1hsb7oSFkEV0-1">
          <mxGeometry x="575.3846153846155" y="504.5" width="90" height="40" as="geometry" />
        </mxCell>
        <mxCell id="nP10EgbO1hsb7oSFkEV0-45" value="" style="edgeStyle=orthogonalEdgeStyle;rounded=0;orthogonalLoop=1;jettySize=auto;html=1;" edge="1" parent="nP10EgbO1hsb7oSFkEV0-1" source="nP10EgbO1hsb7oSFkEV0-46" target="nP10EgbO1hsb7oSFkEV0-48">
          <mxGeometry relative="1" as="geometry">
            <mxPoint x="575.3846153846155" y="525" as="targetPoint" />
          </mxGeometry>
        </mxCell>
        <mxCell id="nP10EgbO1hsb7oSFkEV0-49" value="&lt;div style=&quot;font-size: 17px;&quot;&gt;&lt;font style=&quot;font-size: 17px;&quot; color=&quot;#6c8ebf&quot;&gt;&lt;b style=&quot;&quot;&gt;Deployment,&amp;nbsp;&lt;/b&gt;&lt;/font&gt;&lt;b style=&quot;color: rgb(108, 142, 191); background-color: initial;&quot;&gt;runs continuously&lt;/b&gt;&lt;/div&gt;" style="text;html=1;align=right;verticalAlign=middle;resizable=0;points=[];autosize=1;strokeColor=none;fillColor=none;" vertex="1" parent="nP10EgbO1hsb7oSFkEV0-1">
          <mxGeometry x="372.00000000000006" y="553" width="280" height="30" as="geometry" />
        </mxCell>
        <mxCell id="nP10EgbO1hsb7oSFkEV0-53" value="&lt;b&gt;&lt;font style=&quot;font-size: 20px;&quot;&gt;4&lt;/font&gt;&lt;/b&gt;" style="ellipse;whiteSpace=wrap;html=1;aspect=fixed;fillColor=#6C8EBF;strokeColor=none;" vertex="1" parent="nP10EgbO1hsb7oSFkEV0-1">
          <mxGeometry x="659.9971794871794" y="553" width="30" height="30" as="geometry" />
        </mxCell>
        <mxCell id="nP10EgbO1hsb7oSFkEV0-57" value="&lt;div style=&quot;font-size: 17px;&quot;&gt;&lt;font color=&quot;#6c8ebf&quot;&gt;(no camera,&amp;nbsp;&lt;/font&gt;&lt;span style=&quot;color: rgb(108, 142, 191); background-color: initial;&quot;&gt;no tags)&lt;/span&gt;&lt;/div&gt;" style="text;html=1;align=right;verticalAlign=middle;resizable=0;points=[];autosize=1;strokeColor=none;fillColor=none;" vertex="1" parent="nP10EgbO1hsb7oSFkEV0-1">
          <mxGeometry x="200.00025641025638" y="553" width="180" height="30" as="geometry" />
        </mxCell>
      </root>
    </mxGraphModel>
  </diagram>
</mxfile>
